<svg id="dynam-logo" xmlns="http://www.w3.org/2000/svg" width="280.558" height="239.307" viewBox="0 0 280.558 239.307">
  <path id="Tracé_13" data-name="Tracé 13" d="M59.023,131.48H4.94V108.249H59.023a42.5,42.5,0,0,0,0-84.994H4.94V0H59.023a65.746,65.746,0,0,1,0,131.492Z" transform="translate(4.291 0)" fill="#0bd4d1"/>
  <path id="Tracé_14" data-name="Tracé 14" d="M85.922,65.752H62.68A65.8,65.8,0,0,1,128.4,0V23.255a42.485,42.485,0,0,0-42.473,42.5Z" transform="translate(82.796 0)" fill="#0bd4d1"/>
  <path id="Tracé_15" data-name="Tracé 15" d="M90.53,93.578V70.347A42.485,42.485,0,0,0,133,27.85h23.242A65.8,65.8,0,0,1,90.53,93.578Z" transform="translate(120.662 37.902)" fill="#0bd4d1"/>
  <g id="Group_11" data-name="Group 11" transform="translate(0 156.882)">
    <g id="dynam" transform="translate(0 0)" style="isolation: isolate">
      <path id="Tracé_5919" data-name="Tracé 5919" d="M51.619-60.176v-63.549H34.82v20.674a21.761,21.761,0,0,0-13.026-3.865,15.8,15.8,0,0,0-8.445,2.157,13.931,13.931,0,0,0-5.3,5.8,30.066,30.066,0,0,0-2.56,7.505A43.142,43.142,0,0,0,4.725-83.1a35.155,35.155,0,0,0,.988,8.539,27,27,0,0,0,3.144,7.505,14.915,14.915,0,0,0,6.333,5.618,22.377,22.377,0,0,0,10.017,2.067,19.176,19.176,0,0,0,8.534-1.888,15.306,15.306,0,0,0,5.57-4.135l2.965,5.213ZM35-83.1q0,2.7-.135,4.18a11.434,11.434,0,0,1-.764,3.1,4.238,4.238,0,0,1-2.021,2.337,8.172,8.172,0,0,1-3.728.719A7.739,7.739,0,0,1,25.3-73.3a5.042,5.042,0,0,1-1.931-1.348,5.626,5.626,0,0,1-1.033-2.292,16.777,16.777,0,0,1-.449-2.786q-.09-1.3-.09-3.371a35.972,35.972,0,0,1,.18-4.09,14.182,14.182,0,0,1,.764-3.1,4.023,4.023,0,0,1,2.021-2.337,8.228,8.228,0,0,1,3.683-.719,7.776,7.776,0,0,1,3.189.584,5.711,5.711,0,0,1,1.976,1.348,5.049,5.049,0,0,1,.988,2.382,18.706,18.706,0,0,1,.359,2.7Q35-85.254,35-83.1Zm69.623-22.921h-16.8l-.09,24.808q0,4.944-1.213,6.472t-4.537,1.528q-3.144,0-4.267-1.528t-1.123-6.472v-24.808H59.884V-80.49q0,4.135.225,6.741a24.321,24.321,0,0,0,1.213,5.573,10.469,10.469,0,0,0,2.785,4.584,14.623,14.623,0,0,0,5.076,2.742,25.009,25.009,0,0,0,8.04,1.124,14.721,14.721,0,0,0,6.064-1.3,12.634,12.634,0,0,0,4.537-3.191v5.034a13.061,13.061,0,0,1-1.078,5.977q-1.078,2.022-4.492,2.022-6.648,0-6.648-5.573H59.525q0,8,4.806,11.73T82.164-41.3a35.769,35.769,0,0,0,11.589-1.618,14.058,14.058,0,0,0,6.917-4.629,18.536,18.536,0,0,0,3.1-6.067,26.134,26.134,0,0,0,.853-7.011Zm53.093,45.842V-86.422a59.152,59.152,0,0,0-.314-6.607,22.357,22.357,0,0,0-1.392-5.528,11.32,11.32,0,0,0-3.01-4.494,14.706,14.706,0,0,0-5.255-2.786,26.414,26.414,0,0,0-8.085-1.079q-9.253,0-14.464,6.472l-2.785-5.573h-9.433v45.842h16.889V-85.793q0-4.4,1.258-5.977t4.4-1.573q3.234,0,4.312,1.483t1.078,6.067v25.617Zm52.644,0v-25.8a33.562,33.562,0,0,0-.853-8.135,18.132,18.132,0,0,0-3.189-6.472,14.349,14.349,0,0,0-7.142-4.719,38.393,38.393,0,0,0-12.083-1.618q-11.948,0-16.934,4.764a16.162,16.162,0,0,0-4.986,12.224h16.62a8.186,8.186,0,0,1,1.258-5.034q1.258-1.618,4.492-1.618,3.593,0,4.761,1.8t1.168,6.652q-16.26,1.079-23,4.494a11.465,11.465,0,0,0-6.738,10.966q0,6.652,4.986,10.022T181.7-59.277q10.87,0,16.35-7.191l2.965,6.292ZM193.38-80.13q0,4.944-1.887,7.55a5.829,5.829,0,0,1-4.941,2.607q-5.57,0-5.57-4.494,0-4.135,5.57-4.944Zm91.9,19.955V-88.67a56.308,56.308,0,0,0-.27-5.977,23.42,23.42,0,0,0-1.123-4.989,9.264,9.264,0,0,0-2.426-3.955,12.3,12.3,0,0,0-4.222-2.382,19.241,19.241,0,0,0-6.423-.944,18.9,18.9,0,0,0-8.13,1.708,12.894,12.894,0,0,0-5.435,4.4q-4.222-6.112-14.1-6.112a16.187,16.187,0,0,0-7.636,1.888,11.949,11.949,0,0,0-5.031,4.4l-2.785-5.393h-9.433v45.842h16.889V-87.681q0-5.483,4.222-5.483,3.953,0,3.953,5.483v27.505h16.979V-87.681q0-5.483,4.043-5.483t4.043,5.483v27.505Z" transform="translate(-4.725 123.725)" fill="#053863"/>
    </g>
  </g>
</svg>
